<svg xmlns="http://www.w3.org/2000/svg" viewBox="0 0 81.97 73.93"><defs><style>.cls-1{fill:#f79a70;}.cls-2{fill:#563e03;}.cls-3{fill:#c1c0bf;}.cls-4{fill:#eaeaea;}.cls-5{fill:#e88158;}.cls-6{fill:#d16843;}.cls-7{fill:#fff;}</style></defs><g id="Layer_2" data-name="Layer 2"><g id="Illustration"><path class="cls-1" d="M54.4,29.78a8.94,8.94,0,0,0-2.39-3,9.67,9.67,0,0,0-4.52-2.05V24.6c.27-.1.53-.21.78-.32,4.29-1.83,5.78-5,5.78-9.12a11.07,11.07,0,0,0-2.63-7.25c-2.18-2.58-5.75-4.32-10.67-4.32A24.28,24.28,0,0,0,29.5,6.4a2.42,2.42,0,0,0-1,3.11l1.58,3.4A2.18,2.18,0,0,0,33,14a11.41,11.41,0,0,1,5.05-1c3.43,0,5.48,1.9,5.48,4a3.23,3.23,0,0,1-2.09,3,10.12,10.12,0,0,1-4.16.8,2.27,2.27,0,0,0-2.06,1.67l-1,3.5a2.34,2.34,0,0,0,2.15,3h1.16c3.62,0,7,1.59,7,5,0,2.94-2.59,5.12-6.51,5.12a13.55,13.55,0,0,1-6.28-1.76,2.21,2.21,0,0,0-3.08,1.25l-1.49,4s0,0,0,.06a2.36,2.36,0,0,0,1.08,2.86l.5.26.05,0A22.9,22.9,0,0,0,39,48.29c10.3,0,16.56-6,16.56-13.64A10.62,10.62,0,0,0,54.4,29.78Z"/><path class="cls-2" d="M33.53,51.36H48.33a9,9,0,0,1,9,9V72.29a0,0,0,0,1,0,0H24.49a0,0,0,0,1,0,0V60.4A9,9,0,0,1,33.53,51.36Z"/><path class="cls-3" d="M57.4,73.93H24.47a1.41,1.41,0,1,1,0-2.81H57.4a1.41,1.41,0,0,1,0,2.81Z"/><path class="cls-3" d="M49.65,60.18v3.11a2.82,2.82,0,0,1-2.82,2.82H35a2.81,2.81,0,0,1-2.81-2.82V60.18A2.81,2.81,0,0,1,35,57.36h11.8a1.84,1.84,0,0,1,.41,0A2.82,2.82,0,0,1,49.65,60.18Z"/><path class="cls-4" d="M49.65,60.18v1.31L36.1,66.11H35a2.81,2.81,0,0,1-2.81-2.82v-.77l15-5.12A2.82,2.82,0,0,1,49.65,60.18Z"/><path class="cls-1" d="M30.78,50.4l-3.61-1.63A29.17,29.17,0,0,1,10.11,19.44l.48-5.05,1.94.18-.47,5.05A27.2,27.2,0,0,0,28,47l3.61,1.63Z"/><path class="cls-1" d="M13,14.78l-1.37.93-.93-1.37A9.65,9.65,0,0,1,13.27.93L14.65,0l.92,1.37A9.65,9.65,0,0,1,13,14.78Z"/><path class="cls-5" d="M13,14.78l-1.37.93L14.65,0l.92,1.37A9.65,9.65,0,0,1,13,14.78Z"/><path class="cls-5" d="M9.25,23.24l1,2.4-1.65-.18A9.66,9.66,0,0,1,.06,14.78l.19-1.64,1.64.18C7.2,13.92,9.84,17.93,9.25,23.24Z"/><path class="cls-1" d="M10.41,24l-.18,1.64-10-12.5,1.64.18A9.65,9.65,0,0,1,10.41,24Z"/><path class="cls-5" d="M13.79,37.38l1.43,1.28-1.49.72A9.66,9.66,0,0,1,.83,34.87L.11,33.38l1.49-.72C6.41,30.34,11.47,32.57,13.79,37.38Z"/><path class="cls-1" d="M14.5,37.17l.72,1.49L.11,33.38l1.49-.72A9.66,9.66,0,0,1,14.5,37.17Z"/><path class="cls-5" d="M23.09,47l1.85.5-1,1.32a9.65,9.65,0,0,1-13.53,1.85l-1.32-1,1-1.32C13.32,44.1,18.84,43.78,23.09,47Z"/><path class="cls-1" d="M23.62,46.49l1.32,1L9.09,49.67l1-1.32A9.66,9.66,0,0,1,23.62,46.49Z"/><path class="cls-5" d="M12.87,29.09v2l1.6-.46a9.65,9.65,0,0,0,6.59-12l-.46-1.6L19,17.57C13.88,19.05,11.38,24,12.87,29.09Z"/><path class="cls-1" d="M12.42,29.53l.45,1.59,7.73-14L19,17.57A9.64,9.64,0,0,0,12.42,29.53Z"/><path class="cls-5" d="M21.24,42.46l1.21,1.64,1-1.31a9.65,9.65,0,0,0-1.72-13.55l-1.31-1-1,1.31C16.15,33.75,17,39.19,21.24,42.46Z"/><path class="cls-1" d="M21.14,43.08l1.31,1-2-15.88-1,1.31A9.64,9.64,0,0,0,21.14,43.08Z"/><path class="cls-1" d="M51.2,50.64l-.8-1.78L54,47.24A27.23,27.23,0,0,0,69.92,19.87l-.48-5.05,1.94-.18.48,5.05A29.18,29.18,0,0,1,54.81,49Z"/><path class="cls-1" d="M69,15l1.37.92.93-1.37A9.66,9.66,0,0,0,68.7,1.17L67.33.24,66.4,1.62A9.66,9.66,0,0,0,69,15Z"/><path class="cls-5" d="M69,15l1.37.92L67.33.24,66.4,1.62A9.66,9.66,0,0,0,69,15Z"/><path class="cls-5" d="M72.73,23.48l-1,2.41,1.65-.19A9.64,9.64,0,0,0,81.91,15l-.18-1.65-1.65.19C74.78,14.16,72.13,18.18,72.73,23.48Z"/><path class="cls-1" d="M71.56,24.24l.18,1.65,10-12.51-1.65.19A9.65,9.65,0,0,0,71.56,24.24Z"/><path class="cls-5" d="M68.18,37.62,66.76,38.9l1.49.72a9.64,9.64,0,0,0,12.89-4.51l.72-1.49-1.49-.72C75.56,30.58,70.5,32.81,68.18,37.62Z"/><path class="cls-1" d="M67.48,37.41l-.72,1.49,15.1-5.28-1.49-.72A9.64,9.64,0,0,0,67.48,37.41Z"/><path class="cls-5" d="M58.89,47.25,57,47.74l1,1.32a9.67,9.67,0,0,0,13.54,1.86l1.32-1-1-1.32C68.66,44.34,63.14,44,58.89,47.25Z"/><path class="cls-1" d="M58.35,46.74l-1.32,1,15.86,2.18-1-1.32A9.65,9.65,0,0,0,58.35,46.74Z"/><path class="cls-5" d="M69.1,29.33v2l-1.6-.46a9.66,9.66,0,0,1-6.58-12l.46-1.59,1.59.46C68.1,19.3,70.59,24.2,69.1,29.33Z"/><path class="cls-1" d="M69.56,29.78l-.46,1.59-7.72-14,1.59.46A9.66,9.66,0,0,1,69.56,29.78Z"/><path class="cls-5" d="M60.73,42.71l-1.21,1.63-1-1.31a9.65,9.65,0,0,1,1.71-13.55l1.31-1,1,1.31C65.82,34,65,39.44,60.73,42.71Z"/><path class="cls-1" d="M60.83,43.33l-1.31,1,2-15.87,1,1.31A9.65,9.65,0,0,1,60.83,43.33Z"/><path class="cls-6" d="M49.88,51.49H32a1.78,1.78,0,1,1,0-3.56h17.9a1.78,1.78,0,0,1,0,3.56Z"/><path class="cls-5" d="M54.4,29.78a10.62,10.62,0,0,1,1.11,4.87c0,7.67-6.26,13.64-16.56,13.64a22.9,22.9,0,0,1-10.16-2.52l-.05,0-.5-.26a2.36,2.36,0,0,1-1.08-2.86c2.29,1.89,13,7.36,22.69-1.24A14.25,14.25,0,0,0,54.4,29.78Z"/><path class="cls-7" d="M31.48,9.2a1,1,0,0,1-.82-.46A1,1,0,0,1,31,7.4a18.5,18.5,0,0,1,5.71-2.05,16.32,16.32,0,0,1,5.5-.24A1,1,0,1,1,41.85,7a15.07,15.07,0,0,0-4.79.23A16.8,16.8,0,0,0,32,9.05,1,1,0,0,1,31.48,9.2Z"/><path class="cls-7" d="M45,7.71a1,1,0,0,1-.79-1.09.93.93,0,0,1,1.07-.77h0A.94.94,0,0,1,45,7.71Z"/></g></g></svg>