<svg xmlns="http://www.w3.org/2000/svg" viewBox="0 0 81.97 73.93">
    <defs>
        <style>.cls-1{fill:#ffe853;}.cls-2{fill:#ffc831;}.cls-3{fill:#563e03;}.cls-4{fill:#c1c0bf;}.cls-5{fill:#eaeaea;}.cls-6{fill:#ef9900;}.cls-7{fill:#fff;}</style>
    </defs>
    <g id="Layer_2" data-name="Layer 2">
        <g id="Illustration">
            <path class="cls-1" d="M48.38,4.33V47.75a3.14,3.14,0,0,1-3.15,3.14H36.4a3.14,3.14,0,0,1-3.15-3.14V13.34H33.1l-2.72,1.25a3.16,3.16,0,0,1-4.22-1.65l-.45-1.08a3.17,3.17,0,0,1,.93-3.66l7.8-6.32a3.22,3.22,0,0,1,2-.7h8.8A3.15,3.15,0,0,1,48.38,4.33Z"/>
            <path class="cls-2" d="M48.38,4.33V47.75a3.15,3.15,0,0,1-1.19,2.46c-2.63-.24-11.72-1-11.72-1s5-3.57,8.2-13.09c3.74-11,2.12-29.66.72-35h.84A3.15,3.15,0,0,1,48.38,4.33Z"/>
            <path class="cls-3" d="M33.53,51.36H48.33a9,9,0,0,1,9,9V72.29a0,0,0,0,1,0,0H24.49a0,0,0,0,1,0,0V60.4A9,9,0,0,1,33.53,51.36Z"/>
            <path class="cls-4" d="M57.4,73.93H24.47a1.41,1.41,0,1,1,0-2.81H57.4a1.41,1.41,0,0,1,0,2.81Z"/>
            <path class="cls-4" d="M49.65,60.18v3.11a2.82,2.82,0,0,1-2.82,2.82H35a2.81,2.81,0,0,1-2.81-2.82V60.18A2.81,2.81,0,0,1,35,57.36h11.8a1.84,1.84,0,0,1,.41,0A2.82,2.82,0,0,1,49.65,60.18Z"/>
            <path class="cls-5" d="M49.65,60.18v1.31L36.1,66.11H35a2.81,2.81,0,0,1-2.81-2.82v-.77l15-5.12A2.82,2.82,0,0,1,49.65,60.18Z"/>
            <path class="cls-1" d="M30.78,50.4l-3.61-1.63A29.17,29.17,0,0,1,10.11,19.44l.48-5.05,1.94.18-.47,5.05A27.2,27.2,0,0,0,28,47l3.61,1.63Z"/>
            <path class="cls-1" d="M13,14.78l-1.37.93-.93-1.37A9.65,9.65,0,0,1,13.27.93L14.65,0l.92,1.37A9.65,9.65,0,0,1,13,14.78Z"/>
            <path class="cls-2" d="M13,14.78l-1.37.93L14.65,0l.92,1.37A9.65,9.65,0,0,1,13,14.78Z"/>
            <path class="cls-2" d="M9.25,23.24l1,2.4-1.65-.18A9.66,9.66,0,0,1,.06,14.78l.19-1.64,1.64.18C7.2,13.92,9.84,17.93,9.25,23.24Z"/>
            <path class="cls-1" d="M10.41,24l-.18,1.64-10-12.5,1.64.18A9.65,9.65,0,0,1,10.41,24Z"/>
            <path class="cls-2" d="M13.79,37.38l1.43,1.28-1.49.72A9.66,9.66,0,0,1,.83,34.87L.11,33.38l1.49-.72C6.41,30.34,11.47,32.57,13.79,37.38Z"/>
            <path class="cls-1" d="M14.5,37.17l.72,1.49L.11,33.38l1.49-.72A9.66,9.66,0,0,1,14.5,37.17Z"/>
            <path class="cls-2" d="M23.09,47l1.85.5-1,1.32a9.65,9.65,0,0,1-13.53,1.85l-1.32-1,1-1.32C13.32,44.1,18.84,43.78,23.09,47Z"/>
            <path class="cls-1" d="M23.62,46.49l1.32,1L9.09,49.67l1-1.32A9.66,9.66,0,0,1,23.62,46.49Z"/>
            <path class="cls-2" d="M12.87,29.09v2l1.6-.46a9.65,9.65,0,0,0,6.59-12l-.46-1.6L19,17.57C13.88,19.05,11.38,24,12.87,29.09Z"/>
            <path class="cls-1" d="M12.42,29.53l.45,1.59,7.73-14L19,17.57A9.64,9.64,0,0,0,12.42,29.53Z"/>
            <path class="cls-2" d="M21.24,42.46l1.21,1.64,1-1.31a9.65,9.65,0,0,0-1.72-13.55l-1.31-1-1,1.31C16.15,33.75,17,39.19,21.24,42.46Z"/>
            <path class="cls-1" d="M21.14,43.08l1.31,1-2-15.88-1,1.31A9.64,9.64,0,0,0,21.14,43.08Z"/>
            <path class="cls-1" d="M51.2,50.64l-.8-1.78L54,47.24A27.22,27.22,0,0,0,69.92,19.87l-.48-5.05,1.94-.18.48,5.05A29.18,29.18,0,0,1,54.81,49Z"/>
            <path class="cls-1" d="M69,15l1.37.92.93-1.37A9.66,9.66,0,0,0,68.7,1.17L67.33.24,66.4,1.62A9.66,9.66,0,0,0,69,15Z"/>
            <path class="cls-2" d="M69,15l1.37.92L67.33.24,66.4,1.62A9.66,9.66,0,0,0,69,15Z"/>
            <path class="cls-2" d="M72.73,23.48l-1,2.41,1.65-.19A9.64,9.64,0,0,0,81.91,15l-.18-1.65-1.65.19C74.78,14.16,72.13,18.18,72.73,23.48Z"/>
            <path class="cls-1" d="M71.56,24.24l.18,1.65,10-12.51-1.65.19A9.65,9.65,0,0,0,71.56,24.24Z"/>
            <path class="cls-2" d="M68.18,37.62,66.76,38.9l1.49.72a9.64,9.64,0,0,0,12.89-4.51l.72-1.49-1.49-.72C75.56,30.58,70.5,32.81,68.18,37.62Z"/>
            <path class="cls-1" d="M67.48,37.41l-.72,1.49,15.1-5.28-1.49-.72A9.64,9.64,0,0,0,67.48,37.41Z"/>
            <path class="cls-2" d="M58.89,47.25,57,47.74l1,1.32a9.67,9.67,0,0,0,13.54,1.86l1.32-1-1-1.32C68.66,44.34,63.14,44,58.89,47.25Z"/>
            <path class="cls-1" d="M58.35,46.74l-1.32,1,15.86,2.18-1-1.32A9.65,9.65,0,0,0,58.35,46.74Z"/>
            <path class="cls-2" d="M69.1,29.33v2l-1.6-.46a9.66,9.66,0,0,1-6.58-12l.46-1.59,1.59.46C68.1,19.3,70.59,24.2,69.1,29.33Z"/>
            <path class="cls-1" d="M69.56,29.78l-.46,1.59-7.72-14,1.59.46A9.66,9.66,0,0,1,69.56,29.78Z"/>
            <path class="cls-2" d="M60.73,42.71l-1.21,1.63-1-1.31a9.65,9.65,0,0,1,1.71-13.55l1.31-1,1,1.31C65.82,34,65,39.44,60.73,42.71Z"/>
            <path class="cls-1" d="M60.83,43.33l-1.31,1,2-15.87,1,1.31A9.65,9.65,0,0,1,60.83,43.33Z"/>
            <path class="cls-6" d="M49.88,51.49H32a1.78,1.78,0,1,1,0-3.56h17.9a1.78,1.78,0,0,1,0,3.56Z"/>
            <path class="cls-7" d="M28.88,10.7A1,1,0,0,1,28.26,9l6.22-5.06a3.77,3.77,0,0,1,2.39-.85h1.76a1,1,0,1,1,0,1.95H36.87a1.89,1.89,0,0,0-1.16.41l-6.22,5.06A.94.94,0,0,1,28.88,10.7Z"/>
            <path class="cls-7" d="M41.42,4.93a1,1,0,0,1-1-.94.92.92,0,0,1,.92-.94h0a.94.94,0,0,1,0,1.88Z"/>
        </g>
    </g>
</svg>